<svg width="50" height="50" viewBox="0 0 50 50" fill="none" xmlns="http://www.w3.org/2000/svg">
<circle cx="25" cy="25" r="25" fill="url(#paint0_linear_9_23)"/>
<path d="M25.0427 40.27C22.9493 40.27 21.4093 39.8533 20.4227 39.02C19.436 38.1867 18.9093 36.7633 18.8427 34.75C18.8227 34.01 18.8093 33.2933 18.8027 32.6C18.8027 31.9067 18.8093 31.22 18.8227 30.54C18.836 29.8533 18.8627 29.1533 18.9027 28.44H19.5327C19.506 29.0067 19.4827 29.6067 19.4627 30.24C19.4427 30.8733 19.4327 31.56 19.4327 32.3C19.4393 33.0333 19.456 33.8433 19.4827 34.73C19.5427 36.5567 20.0093 37.8533 20.8827 38.62C21.7627 39.3867 23.1493 39.77 25.0427 39.77C26.936 39.77 28.306 39.38 29.1527 38.6C29.9993 37.82 30.4593 36.53 30.5327 34.73C30.5593 34.1767 30.576 33.6067 30.5827 33.02C30.5893 32.4333 30.5893 31.8367 30.5827 31.23C30.5827 30.6167 30.5693 30.01 30.5427 29.41C30.4827 27.65 30.0527 26.32 29.2527 25.42C28.4593 24.5133 27.3627 23.8733 25.9627 23.5L23.8127 22.92C23.2527 22.7667 22.7927 22.5467 22.4327 22.26C22.0727 21.9667 21.8027 21.54 21.6227 20.98C21.4493 20.4133 21.3493 19.6467 21.3227 18.68C21.3027 17.7867 21.296 16.9033 21.3027 16.03C21.316 15.15 21.3327 14.23 21.3527 13.27C21.3793 12.0167 21.6793 11.12 22.2527 10.58C22.826 10.0333 23.746 9.76 25.0127 9.76C26.1527 9.76 27.0093 10.02 27.5827 10.54C28.1627 11.06 28.4727 11.9833 28.5127 13.31C28.5327 14.01 28.5393 14.8767 28.5327 15.91C28.526 16.9367 28.5093 18 28.4827 19.1H27.8527C27.8793 17.9867 27.8927 16.93 27.8927 15.93C27.8993 14.93 27.8927 14.0633 27.8727 13.33C27.846 12.2233 27.606 11.4367 27.1527 10.97C26.706 10.4967 25.9927 10.26 25.0127 10.26C23.9927 10.26 23.2393 10.49 22.7527 10.95C22.266 11.41 22.0093 12.1967 21.9827 13.31C21.9627 14.21 21.9493 15.11 21.9427 16.01C21.936 16.9033 21.9393 17.79 21.9527 18.67C21.9727 19.55 22.0593 20.2333 22.2127 20.72C22.366 21.2067 22.5893 21.5633 22.8827 21.79C23.176 22.0167 23.536 22.19 23.9627 22.31L26.1027 22.9C27.7027 23.34 28.9293 24.0667 29.7827 25.08C30.6427 26.0867 31.1093 27.5233 31.1827 29.39C31.2027 29.95 31.2127 30.54 31.2127 31.16C31.2193 31.78 31.2193 32.3967 31.2127 33.01C31.206 33.6233 31.1893 34.2033 31.1627 34.75C31.0827 36.7233 30.5693 38.1367 29.6227 38.99C28.676 39.8433 27.1493 40.27 25.0427 40.27ZM25.0427 39.26C23.3627 39.26 22.1327 38.9133 21.3527 38.22C20.5793 37.52 20.166 36.35 20.1127 34.71C20.0927 33.9567 20.0793 33.24 20.0727 32.56C20.0727 31.8733 20.0793 31.1933 20.0927 30.52C20.106 29.84 20.126 29.1467 20.1527 28.44H20.7927C20.7593 29.0867 20.736 29.74 20.7227 30.4C20.7093 31.0533 20.7027 31.7333 20.7027 32.44C20.7093 33.14 20.7227 33.89 20.7427 34.69C20.796 36.15 21.156 37.1933 21.8227 37.82C22.496 38.44 23.5693 38.75 25.0427 38.75C26.496 38.75 27.5493 38.4333 28.2027 37.8C28.856 37.1667 29.2093 36.13 29.2627 34.69C29.2893 34.1233 29.306 33.5533 29.3127 32.98C29.3193 32.4 29.3193 31.8167 29.3127 31.23C29.3127 30.6433 29.3027 30.0533 29.2827 29.46C29.2493 28.5067 29.0893 27.7167 28.8027 27.09C28.5227 26.4567 28.1193 25.95 27.5927 25.57C27.0727 25.19 26.4393 24.9 25.6927 24.7L23.5127 24.12C22.806 23.9333 22.1993 23.6567 21.6927 23.29C21.186 22.9167 20.7927 22.37 20.5127 21.65C20.2327 20.93 20.0793 19.9533 20.0527 18.72C20.0393 18.1467 20.0327 17.5533 20.0327 16.94C20.0327 16.3267 20.036 15.71 20.0427 15.09C20.056 14.47 20.0693 13.8533 20.0827 13.24C20.1227 11.6267 20.526 10.4733 21.2927 9.78C22.066 9.08667 23.306 8.74 25.0127 8.74C26.5993 8.74 27.776 9.07667 28.5427 9.75C29.316 10.4233 29.726 11.6 29.7727 13.28C29.7927 13.96 29.7993 14.83 29.7927 15.89C29.7927 16.95 29.7793 18.02 29.7527 19.1H29.1127C29.146 17.9933 29.1627 16.9233 29.1627 15.89C29.1693 14.85 29.1627 13.9833 29.1427 13.29C29.096 11.7767 28.7327 10.7267 28.0527 10.14C27.3793 9.54667 26.366 9.25 25.0127 9.25C23.526 9.25 22.446 9.56 21.7727 10.18C21.106 10.7933 20.7527 11.82 20.7127 13.26C20.6927 14.1067 20.6793 15.0167 20.6727 15.99C20.666 16.9567 20.6727 17.86 20.6927 18.7C20.7193 19.7933 20.8427 20.66 21.0627 21.3C21.2893 21.94 21.6193 22.43 22.0527 22.77C22.486 23.1033 23.0227 23.3567 23.6627 23.53L25.8227 24.1C27.0693 24.4333 28.046 25 28.7527 25.8C29.466 26.6 29.8527 27.8133 29.9127 29.44C29.9393 30.0867 29.9527 30.7033 29.9527 31.29C29.9593 31.87 29.956 32.44 29.9427 33C29.936 33.5533 29.9193 34.1233 29.8927 34.71C29.8327 36.3167 29.4293 37.4767 28.6827 38.19C27.936 38.9033 26.7227 39.26 25.0427 39.26ZM25.0427 38.24C23.7893 38.24 22.8727 37.9667 22.2927 37.42C21.7193 36.8667 21.416 35.95 21.3827 34.67C21.3627 33.9833 21.346 33.31 21.3327 32.65C21.326 31.99 21.3293 31.3167 21.3427 30.63C21.3627 29.9367 21.3893 29.2067 21.4227 28.44H22.0427C22.016 29.2267 21.996 29.9467 21.9827 30.6C21.9693 31.2467 21.966 31.89 21.9727 32.53C21.9793 33.17 21.9927 33.88 22.0127 34.66C22.046 35.7667 22.2993 36.5567 22.7727 37.03C23.2527 37.5033 24.0093 37.74 25.0427 37.74C26.0493 37.74 26.7793 37.5 27.2327 37.02C27.6927 36.54 27.946 35.7533 27.9927 34.66C28.0193 34.0133 28.036 33.41 28.0427 32.85C28.056 32.2833 28.0593 31.73 28.0527 31.19C28.0527 30.65 28.0393 30.09 28.0127 29.51C27.986 28.7633 27.8693 28.15 27.6627 27.67C27.4627 27.19 27.176 26.81 26.8027 26.53C26.4293 26.25 25.966 26.0367 25.4127 25.89L23.2227 25.31C22.276 25.0567 21.476 24.69 20.8227 24.21C20.176 23.73 19.6827 23.0533 19.3427 22.18C19.0093 21.3067 18.826 20.1633 18.7927 18.75C18.7727 17.9633 18.7627 17.1033 18.7627 16.17C18.7693 15.23 18.786 14.2433 18.8127 13.21C18.866 11.2167 19.3827 9.80666 20.3627 8.98C21.3493 8.14666 22.8993 7.73 25.0127 7.73C26.9793 7.73 28.4593 8.13 29.4527 8.93C30.4527 9.73 30.9827 11.1633 31.0427 13.23C31.0627 13.89 31.0693 14.7433 31.0627 15.79C31.0627 16.83 31.046 17.9333 31.0127 19.1H30.3827C30.416 18.02 30.4327 16.9567 30.4327 15.91C30.4393 14.8567 30.4327 13.9733 30.4127 13.26C30.3593 11.4 29.8927 10.0967 29.0127 9.35C28.1393 8.60333 26.806 8.23 25.0127 8.23C23.0927 8.23 21.696 8.61333 20.8227 9.38C19.956 10.1467 19.4993 11.43 19.4527 13.23C19.426 14.01 19.4093 14.93 19.4027 15.99C19.396 17.05 19.4027 17.9667 19.4227 18.74C19.4493 19.9933 19.606 21.0167 19.8927 21.81C20.1793 22.6033 20.6093 23.2267 21.1827 23.68C21.756 24.1333 22.486 24.48 23.3727 24.72L25.5527 25.3C26.166 25.4533 26.696 25.69 27.1427 26.01C27.596 26.3233 27.9527 26.76 28.2127 27.32C28.4727 27.8733 28.616 28.5933 28.6427 29.48C28.6627 30.0467 28.676 30.6167 28.6827 31.19C28.6893 31.7633 28.6893 32.34 28.6827 32.92C28.676 33.5 28.6593 34.0833 28.6327 34.67C28.5793 35.9433 28.276 36.8567 27.7227 37.41C27.1693 37.9633 26.276 38.24 25.0427 38.24Z" fill="#80CBC3"/>
<defs>
<linearGradient id="paint0_linear_9_23" x1="25" y1="50" x2="25" y2="0" gradientUnits="userSpaceOnUse">
<stop stop-color="#406561" stop-opacity="0.2"/>
<stop offset="1" stop-color="#80CBC3" stop-opacity="0.2"/>
</linearGradient>
</defs>
</svg>
